HIERARCHY
ROOT hip
{
  OFFSET 0 0 0
  CHANNELS 6 Xposition Yposition Zposition Zrotation Yrotation Xrotation
  JOINT abdomen
  {
    OFFSET 0 20.6881 -0.73152
    CHANNELS 3 Zrotation Xrotation Yrotation
    JOINT chest
    {
      OFFSET 0 11.7043 -0.48768
      CHANNELS 3 Zrotation Xrotation Yrotation
      JOINT neck
      {
        OFFSET 0 22.1894 -2.19456
        CHANNELS 3 Zrotation Xrotation Yrotation
        JOINT head
        {
          OFFSET -0.24384 7.07133 1.2192
          CHANNELS 3 Zrotation Xrotation Yrotation
          JOINT leftEye
          {
            OFFSET 4.14528 8.04674 8.04672
            CHANNELS 3 Zrotation Xrotation Yrotation
            End Site
            {
              OFFSET 1 0 0
            }
          }
          JOINT rightEye
          {
            OFFSET -3.6576 8.04674 8.04672
            CHANNELS 3 Zrotation Xrotation Yrotation
            End Site
            {
              OFFSET 1 0 0
            }
          }
        }
      }
      JOINT rCollar
      {
        OFFSET -2.68224 19.2634 -4.8768
        CHANNELS 3 Zrotation Xrotation Yrotation
        JOINT rShldr
        {
          OFFSET -8.77824 -1.95073 1.46304
          CHANNELS 3 Zrotation Xrotation Yrotation
          JOINT rForeArm
          {
            OFFSET -28.1742 -1.7115 0.48768
            CHANNELS 3 Zrotation Xrotation Yrotation
            JOINT rHand
            {
              OFFSET -22.5879 0.773209 7.07136
              CHANNELS 3 Zrotation Xrotation Yrotation
              JOINT rThumb1
              {
                OFFSET -1.2192 -0.487915 3.41376
                CHANNELS 3 Zrotation Xrotation Yrotation
                JOINT rThumb2
                {
                  OFFSET -3.37035 -0.52449 3.41376
                  CHANNELS 3 Zrotation Xrotation Yrotation
                  End Site
                  {
                    OFFSET -1.78271 -1.18214 1.43049
                  }
                }
              }
              JOINT rIndex1
              {
                OFFSET -7.75947 0.938293 5.60832
                CHANNELS 3 Zrotation Xrotation Yrotation
                JOINT rIndex2
                {
                  OFFSET -2.54057 -0.884171 1.56538
                  CHANNELS 3 Zrotation Xrotation Yrotation
                  End Site
                  {
                    OFFSET -1.62519 -0.234802 1.16502
                  }
                }
              }
              JOINT rMid1
              {
                OFFSET -8.24714 1.18213 3.41376
                CHANNELS 3 Zrotation Xrotation Yrotation
                JOINT rMid2
                {
                  OFFSET -3.10165 -0.590103 1.0647
                  CHANNELS 3 Zrotation Xrotation Yrotation
                  End Site
                  {
                    OFFSET -2.48547 -0.328903 0.83742
                  }
                }
              }
              JOINT rRing1
              {
                OFFSET -8.82822 0.546677 1.51678
                CHANNELS 3 Zrotation Xrotation Yrotation
                JOINT rRing2
                {
                  OFFSET -2.60934 -0.819778 -0.0198488
                  CHANNELS 3 Zrotation Xrotation Yrotation
                  End Site
                  {
                    OFFSET -2.33842 -0.294052 0.168128
                  }
                }
              }
              JOINT rPinky1
              {
                OFFSET -8.27202 -0.0477905 -0.4584
                CHANNELS 3 Zrotation Xrotation Yrotation
                JOINT rPinky2
                {
                  OFFSET -1.82734 -0.647385 -0.700984
                  CHANNELS 3 Zrotation Xrotation Yrotation
                  End Site
                  {
                    OFFSET -1.69225 -0.51767 -0.607171
                  }
                }
              }
            }
          }
        }
      }
      JOINT lCollar
      {
        OFFSET 2.68224 19.2634 -4.8768
        CHANNELS 3 Zrotation Xrotation Yrotation
        JOINT lShldr
        {
          OFFSET 8.77824 -1.95073 1.46304
          CHANNELS 3 Zrotation Xrotation Yrotation
          JOINT lForeArm
          {
            OFFSET 28.1742 -1.7115 0.48768
            CHANNELS 3 Zrotation Xrotation Yrotation
            JOINT lHand
            {
              OFFSET 22.5879 0.773209 7.07136
              CHANNELS 3 Zrotation Xrotation Yrotation
              JOINT lThumb1
              {
                OFFSET 1.2192 -0.487915 3.41376
                CHANNELS 3 Zrotation Xrotation Yrotation
                JOINT lThumb2
                {
                  OFFSET 3.37035 -0.52449 3.41376
                  CHANNELS 3 Zrotation Xrotation Yrotation
                  End Site
                  {
                    OFFSET 1.78271 -1.18214 1.43049
                  }
                }
              }
              JOINT lIndex1
              {
                OFFSET 7.75947 0.938293 5.60832
                CHANNELS 3 Zrotation Xrotation Yrotation
                JOINT lIndex2
                {
                  OFFSET 2.54057 -0.884171 1.56538
                  CHANNELS 3 Zrotation Xrotation Yrotation
                  End Site
                  {
                    OFFSET 1.62519 -0.234802 1.16502
                  }
                }
              }
              JOINT lMid1
              {
                OFFSET 8.24714 1.18213 3.41376
                CHANNELS 3 Zrotation Xrotation Yrotation
                JOINT lMid2
                {
                  OFFSET 3.10165 -0.590103 1.0647
                  CHANNELS 3 Zrotation Xrotation Yrotation
                  End Site
                  {
                    OFFSET 2.48547 -0.328903 0.83742
                  }
                }
              }
              JOINT lRing1
              {
                OFFSET 8.82822 0.546677 1.51678
                CHANNELS 3 Zrotation Xrotation Yrotation
                JOINT lRing2
                {
                  OFFSET 2.60934 -0.819778 -0.0198488
                  CHANNELS 3 Zrotation Xrotation Yrotation
                  End Site
                  {
                    OFFSET 2.33842 -0.294052 0.168128
                  }
                }
              }
              JOINT lPinky1
              {
                OFFSET 8.27202 -0.0477905 -0.4584
                CHANNELS 3 Zrotation Xrotation Yrotation
                JOINT lPinky2
                {
                  OFFSET 1.82734 -0.647385 -0.700984
                  CHANNELS 3 Zrotation Xrotation Yrotation
                  End Site
                  {
                    OFFSET 1.69225 -0.51767 -0.607171
                  }
                }
              }
            }
          }
        }
      }
    }
  }
  JOINT rButtock
  {
    OFFSET -8.77824 4.35084 1.2192
    CHANNELS 3 Zrotation Xrotation Yrotation
    JOINT rThigh
    {
      OFFSET 0 -1.70687 -2.19456
      CHANNELS 3 Zrotation Xrotation Yrotation
      JOINT rShin
      {
        OFFSET 0 -36.8199 0.73152
        CHANNELS 3 Zrotation Xrotation Yrotation
        JOINT rFoot
        {
          OFFSET 0.73152 -45.1104 -5.12064
          CHANNELS 3 Zrotation Xrotation Yrotation
          End Site
          {
            OFFSET -1.1221 -3.69964 12.103
          }
        }
      }
    }
  }
  JOINT lButtock
  {
    OFFSET 8.77824 4.35084 1.2192
    CHANNELS 3 Zrotation Xrotation Yrotation
    JOINT lThigh
    {
      OFFSET 0 -1.70687 -2.19456
      CHANNELS 3 Zrotation Xrotation Yrotation
      JOINT lShin
      {
        OFFSET 0 -36.8199 0.73152
        CHANNELS 3 Zrotation Xrotation Yrotation
        JOINT lFoot
        {
          OFFSET -0.73152 -45.1104 -5.12064
          CHANNELS 3 Zrotation Xrotation Yrotation
          End Site
          {
            OFFSET 1.1221 -3.69964 12.103
          }
        }
      }
    }
  }
}
MOTION
Frames:	6
Frame Time:	0.00833333
-167.301 85.4571 13.7294 0.0 0.0 0.0 1.9299 -0.00172183 0.0523865 0.532116 0.00507098 0.0921285 8.95379e-15 0.0 5.46658e-16 2.72273e-14 3.18055e-15 1.66172e-15 -0.0 0.0 0.0 -0.0 0.0 0.0 4.86923e-15 2.98953e-17 4.47265e-16 9.7387e-14 1.02498e-15 6.55989e-15 1.64206e-12 -4.6456e-13 7.31528e-14 1.87048e-11 6.2801e-13 1.13864e-12 4.4129e-11 3.47482e-13 2.65576e-12 7.62053e-11 5.94764e-13 4.57443e-12 4.41326e-11 3.48271e-13 2.64622e-12 7.73091 5.47488 0.417314 4.41281e-11 3.47575e-13 2.65258e-12 2.90554 0.965183 0.102902 4.41368e-11 3.48171e-13 2.65179e-12 10.2786 0.731801 0.0259123 4.41203e-11 3.48668e-13 2.65894e-12 2.22167 -0.733487 -0.20892 4.67272e-15 3.45544e-17 4.96962e-17 9.54875e-14 7.82715e-16 5.56597e-15 1.62631e-12 5.18629e-13 1.24042e-13 1.87188e-11 -3.64024e-13 1.11319e-12 4.41308e-11 3.31624e-13 2.65258e-12 7.62204e-11 5.66139e-13 4.58318e-12 4.41274e-11 3.32766e-13 2.6653e-12 -7.73091 5.47488 -0.417314 4.41304e-11 3.31275e-13 2.65576e-12 -2.90554 0.965183 -0.102902 4.4124e-11 3.31374e-13 2.65338e-12 -10.2786 0.731801 -0.0259123 4.4131e-11 3.3197e-13 2.6494e-12 -2.22167 -0.733487 0.20892 -2.03217e-16 0.0 -3.88251e-19 1.95581 -7.26116 -0.19178 0.00414252 7.58528 0.107251 -0.517622 -0.330656 0.0519227 2.03217e-16 0.0 3.88251e-19 0.976731 -1.92613 0.000868958 0.00898658 -2.0786 0.0740577 0.487815 3.99809 -0.136729
-160.955 85.3079 5.31235 14.4842 87.1217 15.9595 0.820939 1.49558 1.07556 0.906219 -0.255307 0.401123 1.29243 -1.63744 0.545767 -0.223034 1.41603 0.70457 -0.0 0.0 0.0 -0.0 0.0 0.0 6.23616e-15 1.4657e-13 1.25211e-15 -4.25231 -0.838352 0.0322127 0.456043 0.210171 -0.647945 -8.50328e-06 -0.0124588 -0.00175095 1.8313e-11 -3.18539e-09 -2.27675e-10 3.16742e-11 -5.5098e-09 -3.93757e-10 1.83166e-11 -3.18539e-09 -2.27685e-10 7.73091 5.47488 0.417314 1.83126e-11 -3.18539e-09 -2.27677e-10 2.90554 0.965183 0.102902 1.8321e-11 -3.18539e-09 -2.27677e-10 10.2786 0.731801 0.0259123 1.8306e-11 -3.18539e-09 -2.2767e-10 2.22167 -0.733487 -0.20892 6.10286e-15 1.46573e-13 8.79389e-16 -21.6585 10.5979 0.140807 5.72704 -2.98822 -8.49552 -0.00592909 1.85262 -0.259962 -1.44976e-10 3.72946e-11 3.76887e-12 -2.51266e-10 6.48693e-11 8.55759e-12 -1.44979e-10 3.72932e-11 3.78153e-12 -7.73091 5.47488 -0.417314 -1.44978e-10 3.72915e-11 3.77104e-12 -2.90554 0.965183 -0.102902 -1.44983e-10 3.7291e-11 3.7695e-12 -10.2786 0.731801 -0.0259123 -1.44974e-10 3.72917e-11 3.76642e-12 -2.22167 -0.733487 0.20892 -2.03217e-16 0.0 -3.88251e-19 -0.09998 -4.8631 -1.40605 0.00625708 7.7924 0.119875 -0.60431 -4.59968 -1.78115 2.03217e-16 0.0 3.88251e-19 2.20925 0.665753 -0.575822 0.00743315 -2.48045 0.061439 0.55478 1.19465 2.07013
-160.934 85.3281 5.31658 14.9415 87.0801 16.3262 -0.405888 3.07678 2.16136 1.30198 -0.526369 0.728289 2.68749 -3.36734 1.12129 -0.492459 2.90272 1.44637 -0.0 0.0 0.0 -0.0 0.0 0.0 8.15196e-15 3.2328e-13 2.24565e-15 -10.0041 -2.2356 0.0859569 1.22668 0.560238 -1.72792 -2.43676e-05 -0.0332235 -0.00466919 -3.17857e-11 -6.70473e-09 -4.68481e-10 -5.47574e-11 -1.15972e-08 -8.10159e-10 -3.17822e-11 -6.70474e-09 -4.68491e-10 7.73091 5.47488 0.417314 -3.17857e-11 -6.70473e-09 -4.6848e-10 2.90554 0.965183 0.102902 -3.17776e-11 -6.70473e-09 -4.6848e-10 10.2786 0.731801 0.0259123 -3.17909e-11 -6.70473e-09 -4.68474e-10 2.22167 -0.733487 -0.20892 8.08678e-15 3.23283e-13 1.89777e-15 -44.6408 21.7735 0.396591 10.8912 -5.97888 -17.6516 0.00699806 3.89367 -0.547361 -3.38625e-10 7.75286e-11 -2.38289e-11 -5.86758e-10 1.34875e-10 -3.69136e-11 -3.38627e-10 7.75244e-11 -2.38164e-11 -7.73091 5.47488 -0.417314 -3.38628e-10 7.75224e-11 -2.38279e-11 -2.90554 0.965183 -0.102902 -3.38632e-10 7.75214e-11 -2.38286e-11 -10.2786 0.731801 -0.0259123 -3.3862e-10 7.7522e-11 -2.38307e-11 -2.22167 -0.733487 0.20892 -2.03217e-16 0.0 -3.88251e-19 -2.15655 -2.3253 -2.67449 0.00833641 8.00649 0.133176 -0.997633 -9.09817 -3.76409 2.03217e-16 0.0 3.88251e-19 3.56579 3.40847 -1.20797 0.00542711 -2.90901 0.0481281 0.862121 -1.76574 4.42351
-160.934 85.3311 5.32082 14.7747 87.0752 16.1601 -1.55776 4.4843 3.1304 1.66285 -0.775958 1.01919 3.97117 -4.91054 1.64266 -0.773798 4.24552 2.11888 -0.0 0.0 0.0 -0.0 0.0 0.0 8.97001e-15 4.3965e-13 2.8618e-15 -12.7541 -2.51505 0.096721 1.38239 0.630191 -1.94394 -2.77943e-05 -0.0373765 -0.00525284 -3.33189e-11 -9.55688e-09 -6.88338e-10 -5.73881e-11 -1.65306e-08 -1.19042e-09 -3.33155e-11 -9.55688e-09 -6.88348e-10 7.73091 5.47488 0.417314 -3.33185e-11 -9.55688e-09 -6.88335e-10 2.90554 0.965183 0.102902 -3.33107e-11 -9.55687e-09 -6.88335e-10 10.2786 0.731801 0.0259123 -3.33224e-11 -9.55686e-09 -6.88329e-10 2.22167 -0.733487 -0.20892 8.96312e-15 4.39651e-13 2.53878e-15 -65.1552 31.7929 0.488515 14.5976 -8.17792 -25.7321 0.0328479 5.55739 -0.78316 -5.2319e-10 1.11221e-10 6.00147e-12 -9.06239e-10 1.93476e-10 1.65064e-11 -5.23192e-10 1.11214e-10 6.01398e-12 -7.73091 5.47488 -0.417314 -5.23194e-10 1.11212e-10 6.0016e-12 -2.90554 0.965183 -0.102902 -5.23197e-10 1.1121e-10 6.00175e-12 -10.2786 0.731801 -0.0259123 -5.23183e-10 1.11211e-10 6.00045e-12 -2.22167 -0.733487 0.20892 -2.03217e-16 0.0 -3.88251e-19 -3.90713 -0.0711262 -3.82247 0.0102095 8.20664 0.145165 -1.61439 -13.0843 -5.57527 2.03217e-16 0.0 3.88251e-19 4.83138 5.84695 -1.73813 0.00379456 -3.28416 0.0361857 1.33611 -4.38165 6.50093
-160.939 85.3261 5.31802 14.6428 87.1166 16.0504 -2.4082 5.46322 3.79948 1.93074 -0.971952 1.21938 4.91092 -5.98869 2.02365 -1.01319 5.23095 2.61348 -0.0 0.0 0.0 -0.0 0.0 0.0 7.04369e-15 4.05166e-13 2.5345e-15 -8.0 4.72161e-09 2.60833e-10 1.03525e-11 -7.56943e-10 -3.41019e-11 2.9302e-11 -4.15609e-09 -3.57291e-10 8.6562e-11 -1.0741e-08 -8.55824e-10 1.49483e-10 -1.85788e-08 -1.48032e-09 8.65652e-11 -1.0741e-08 -8.55833e-10 7.73091 5.47488 0.417314 8.65626e-11 -1.0741e-08 -8.5582e-10 2.90554 0.965183 0.102902 8.65699e-11 -1.0741e-08 -8.5582e-10 10.2786 0.731801 0.0259123 8.65598e-11 -1.0741e-08 -8.55814e-10 2.22167 -0.733487 -0.20892 7.07048e-15 4.05167e-13 2.23633e-15 -79.1635 38.9233 0.00604122 16.5623 -9.22027 -30.8688 0.0485897 6.27835 -0.885948 -6.85047e-10 1.28558e-10 1.79402e-10 -1.18569e-09 2.23564e-10 3.17155e-10 -6.8505e-10 1.2855e-10 1.79415e-10 -7.73091 5.47488 -0.417314 -6.85052e-10 1.28547e-10 1.79402e-10 -2.90554 0.965183 -0.102902 -6.85055e-10 1.28546e-10 1.79403e-10 -10.2786 0.731801 -0.0259123 -6.85039e-10 1.28547e-10 1.79402e-10 -2.22167 -0.733487 0.20892 -2.03217e-16 0.0 -3.88251e-19 -5.10394 1.4799 -4.67142 0.0117498 8.37189 0.153841 -2.18594 -15.8417 -6.83462 2.03217e-16 0.0 3.88251e-19 5.74926 7.52786 -2.00261 0.00347689 -3.52576 0.0276775 1.75982 -6.17183 7.85989
-160.94 85.3192 5.30644 15.3245 87.0962 16.7345 -2.79261 5.84364 4.03926 2.0688 -1.09968 1.29152 5.3494 -6.42011 2.20976 -1.16747 5.73741 2.86352 -0.0 0.0 0.0 -0.0 0.0 0.0 -1.90198e-16 1.03412e-13 4.47265e-16 9.37441 7.26356 -0.280807 -3.75209 -1.8119 5.61665 4.16283e-05 0.107761 0.0151446 4.99326e-10 -9.34405e-09 -1.0403e-09 8.61686e-10 -1.61623e-08 -1.80019e-09 4.99328e-10 -9.34405e-09 -1.04031e-09 7.73091 5.47488 0.417314 4.99326e-10 -9.34405e-09 -1.0403e-09 2.90554 0.965183 0.102902 4.99333e-10 -9.34404e-09 -1.0403e-09 10.2786 0.731801 0.0259123 4.99324e-10 -9.34403e-09 -1.04029e-09 2.22167 -0.733487 -0.20892 -1.63904e-16 1.03413e-13 1.76266e-16 -83.7607 42.0398 -1.60295 16.7601 -9.12204 -31.6489 0.0307232 5.3792 -0.757883 -9.47586e-10 1.49007e-10 7.20169e-10 -1.63725e-09 2.58647e-10 1.25212e-09 -9.47593e-10 1.48999e-10 7.20182e-10 -7.73091 5.47488 -0.417314 -9.47592e-10 1.48996e-10 7.2017e-10 -2.90554 0.965183 -0.102902 -9.47594e-10 1.48994e-10 7.20172e-10 -10.2786 0.731801 -0.0259123 -9.47578e-10 1.48996e-10 7.20171e-10 -2.22167 -0.733487 0.20892 -2.03217e-16 0.0 -3.88251e-19 -5.62796 2.04649 -5.10713 0.0129713 8.49492 0.157961 -2.41135 -16.9183 -7.2249 2.03217e-16 0.0 3.88251e-19 6.13021 8.14342 -1.85912 0.0053593 -3.57525 0.0239212 1.90118 -6.83182 8.15595
